<svg width="200" height="200" viewBox="0 0 200 200" xmlns="http://www.w3.org/2000/svg">
  <defs>
    <!-- Gradient definitions -->
    <linearGradient id="furGradient" x1="0%" y1="0%" x2="100%" y2="100%">
      <stop offset="0%" style="stop-color:#ff8c42;stop-opacity:1" />
      <stop offset="100%" style="stop-color:#ff6b35;stop-opacity:1" />
    </linearGradient>
    
    <linearGradient id="faceGradient" x1="0%" y1="0%" x2="100%" y2="100%">
      <stop offset="0%" style="stop-color:#ffa726;stop-opacity:1" />
      <stop offset="100%" style="stop-color:#ff9800;stop-opacity:1" />
    </linearGradient>
    
    <linearGradient id="eyeGradient" x1="0%" y1="0%" x2="100%" y2="100%">
      <stop offset="0%" style="stop-color:#42a5f5;stop-opacity:1" />
      <stop offset="100%" style="stop-color:#1976d2;stop-opacity:1" />
    </linearGradient>
    
    <linearGradient id="noseGradient" x1="0%" y1="0%" x2="100%" y2="100%">
      <stop offset="0%" style="stop-color:#2196f3;stop-opacity:1" />
      <stop offset="100%" style="stop-color:#0d47a1;stop-opacity:1" />
    </linearGradient>
    
    <linearGradient id="clawGradient" x1="0%" y1="0%" x2="100%" y2="100%">
      <stop offset="0%" style="stop-color:#2196f3;stop-opacity:1" />
      <stop offset="100%" style="stop-color:#0d47a1;stop-opacity:1" />
    </linearGradient>
    
    <linearGradient id="metalGradient" x1="0%" y1="0%" x2="100%" y2="100%">
      <stop offset="0%" style="stop-color:#90caf9;stop-opacity:1" />
      <stop offset="100%" style="stop-color:#42a5f5;stop-opacity:1" />
    </linearGradient>
  </defs>
  
  <!-- Happy Sloth Face -->
  <g transform="translate(100, 100)">
    <!-- Main sloth body - round and happy -->
    <circle cx="0" cy="0" r="45" fill="url(#furGradient)"/>
    
    <!-- Sloth face - round and cheerful -->
    <ellipse cx="0" cy="-5" rx="30" ry="25" fill="url(#faceGradient)"/>
    
    <!-- Big happy eyes -->
    <circle cx="-12" cy="-8" r="8" fill="white"/>
    <circle cx="12" cy="-8" r="8" fill="white"/>
    
    <!-- Eye pupils - big and bright -->
    <circle cx="-12" cy="-8" r="5" fill="url(#eyeGradient)"/>
    <circle cx="12" cy="-8" r="5" fill="url(#eyeGradient)"/>
    
    <!-- Big eye highlights -->
    <circle cx="-14" cy="-10" r="2.5" fill="white" opacity="0.9"/>
    <circle cx="10" cy="-10" r="2.5" fill="white" opacity="0.9"/>
    
    <!-- AI processing indicators - happy and bright -->
    <circle cx="-12" cy="-8" r="1.5" fill="white">
      <animate attributeName="opacity" values="0.3;1;0.3" dur="2s" repeatCount="indefinite"/>
    </circle>
    <circle cx="12" cy="-8" r="1.5" fill="white">
      <animate attributeName="opacity" values="0.3;1;0.3" dur="2s" repeatCount="indefinite" begin="1s"/>
    </circle>
    
    <!-- Happy blue nose -->
    <ellipse cx="0" cy="0" rx="2" ry="1.5" fill="url(#noseGradient)"/>
    
    <!-- Big happy smile -->
    <path d="M-8,10 Q0,18 8,10" fill="none" stroke="url(#noseGradient)" stroke-width="3" stroke-linecap="round"/>
    
    <!-- Happy cheeks -->
    <circle cx="-18" cy="8" rx="4" ry="3" fill="url(#eyeGradient)" opacity="0.3"/>
    <circle cx="18" cy="8" rx="4" ry="3" fill="url(#eyeGradient)" opacity="0.3"/>
    
    <!-- Blue claws - happy and bright -->
    <g transform="translate(-35, 15)">
      <!-- Left claw -->
      <path d="M0,0 Q-5,-8 -8,-5 Q-10,-2 -8,2 Q-6,6 -2,8 Q2,10 6,8 Q8,6 8,2 Q8,-2 6,-5 Q4,-8 0,-8 Q-2,-8 -4,-6 Q-6,-4 -6,-2 Q-6,0 -4,2 Q-2,4 0,4 Q2,4 4,2 Q6,0 6,-2 Q6,-4 4,-6 Q2,-8 0,-8" fill="url(#clawGradient)"/>
    </g>
    
    <g transform="translate(35, 15)">
      <!-- Right claw -->
      <path d="M0,0 Q5,-8 8,-5 Q10,-2 8,2 Q6,6 2,8 Q-2,10 -6,8 Q-8,6 -8,2 Q-8,-2 -6,-5 Q-4,-8 0,-8 Q2,-8 4,-6 Q6,-4 6,-2 Q6,0 4,2 Q2,4 0,4 Q-2,4 -4,2 Q-6,0 -6,-2 Q-6,-4 -4,-6 Q-2,-8 0,-8" fill="url(#clawGradient)"/>
    </g>
    
    <!-- Happy fur texture -->
    <path d="M-20,20 Q-10,25 0,20" fill="none" stroke="url(#furGradient)" stroke-width="1.5" opacity="0.7"/>
    <path d="M-15,25 Q-5,30 5,25" fill="none" stroke="url(#furGradient)" stroke-width="1.5" opacity="0.7"/>
    <path d="M-10,30 Q0,35 10,30" fill="none" stroke="url(#furGradient)" stroke-width="1.5" opacity="0.7"/>
    
    <!-- Happy fur patches -->
    <ellipse cx="-15" cy="15" rx="3" ry="2" fill="url(#faceGradient)" opacity="0.6"/>
    <ellipse cx="15" cy="15" rx="3" ry="2" fill="url(#faceGradient)" opacity="0.6"/>
    
    <!-- Happy expression lines -->
    <path d="M-8,12 Q0,14 8,12" fill="none" stroke="url(#noseGradient)" stroke-width="1" opacity="0.6"/>
    <path d="M-5,15 Q0,17 5,15" fill="none" stroke="url(#noseGradient)" stroke-width="1" opacity="0.6"/>
    
    <!-- Happy android indicators -->
    <circle cx="-25" cy="-5" r="0.8" fill="url(#eyeGradient)" opacity="0.8">
      <animate attributeName="opacity" values="0.3;1;0.3" dur="3s" repeatCount="indefinite"/>
    </circle>
    <circle cx="25" cy="-5" r="0.8" fill="url(#eyeGradient)" opacity="0.8">
      <animate attributeName="opacity" values="0.3;1;0.3" dur="3s" repeatCount="indefinite" begin="1.5s"/>
    </circle>
    
    <!-- Happy eyebrows -->
    <path d="M-18,-15 Q-12,-12 -6,-15" fill="none" stroke="url(#noseGradient)" stroke-width="2" opacity="0.7"/>
    <path d="M6,-15 Q12,-12 18,-15" fill="none" stroke="url(#noseGradient)" stroke-width="2" opacity="0.7"/>
    
    <!-- Happy hanging pose -->
    <path d="M-5,35 Q0,40 5,35" fill="none" stroke="url(#clawGradient)" stroke-width="2" opacity="0.6"/>
    
    <!-- Extra happy details -->
    <circle cx="-30" cy="-20" r="1" fill="url(#eyeGradient)" opacity="0.6">
      <animate attributeName="opacity" values="0.2;0.8;0.2" dur="2.5s" repeatCount="indefinite"/>
    </circle>
    <circle cx="30" cy="-20" r="1" fill="url(#eyeGradient)" opacity="0.6">
      <animate attributeName="opacity" values="0.2;0.8;0.2" dur="2.5s" repeatCount="indefinite" begin="1.2s"/>
    </circle>
  </g>
</svg> 